<?xml version="1.0" encoding="UTF-8" ?>
<!DOCTYPE svg PUBLIC "-//W3C//DTD SVG 1.1//EN" "http://www.w3.org/Graphics/SVG/1.1/DTD/svg11.dtd">
<svg width="254pt" height="273pt" viewBox="0 0 254 273" version="1.1" xmlns="http://www.w3.org/2000/svg">
<g id="#ffffffff">
<path fill="#ffffff" opacity="1.00" d=" M 58.23 18.21 C 60.14 17.01 63.23 18.37 62.70 20.85 C 62.74 23.47 59.10 24.32 57.53 22.51 C 56.63 21.15 56.83 19.17 58.23 18.21 Z" />
<path fill="#ffffff" opacity="1.00" d=" M 192.36 18.40 C 193.99 17.22 196.89 17.79 197.20 20.02 C 197.91 22.40 195.24 24.18 193.13 23.37 C 191.56 22.33 190.87 19.80 192.36 18.40 Z" />
<path fill="#ffffff" opacity="1.00" d=" M 105.34 51.37 C 107.40 49.45 111.33 51.08 110.52 54.09 C 110.20 56.26 107.78 56.34 106.10 55.91 C 104.63 54.93 104.57 52.80 105.34 51.37 Z" />
<path fill="#ffffff" opacity="1.00" d=" M 144.35 51.39 C 146.28 49.43 150.31 51.04 149.32 53.98 C 148.99 57.42 142.88 56.57 143.68 53.02 C 143.85 52.61 144.18 51.80 144.35 51.39 Z" />
<path fill="#ffffff" opacity="1.00" d=" M 18.24 58.23 C 19.85 57.21 22.67 57.97 22.69 60.12 C 23.01 62.34 20.13 64.59 18.27 62.90 C 16.68 61.84 16.50 59.22 18.24 58.23 Z" />
<path fill="#ffffff" opacity="1.00" d=" M 232.37 58.57 C 234.86 56.02 239.14 59.92 236.44 62.48 C 233.99 65.54 229.59 61.17 232.37 58.57 Z" />
<path fill="#ffffff" opacity="1.00" d=" M 18.18 78.03 C 21.35 75.84 24.38 80.36 21.65 82.74 C 18.72 85.34 15.04 80.00 18.18 78.03 Z" />
<path fill="#ffffff" opacity="1.00" d=" M 232.17 78.28 C 234.49 76.09 238.74 78.89 236.84 81.79 C 235.11 85.65 229.32 81.41 232.17 78.28 Z" />
<path fill="#ffffff" opacity="1.00" d=" M 31.30 101.28 C 35.45 99.16 37.11 106.54 32.84 106.78 C 29.57 107.80 28.37 102.17 31.30 101.28 Z" />
<path fill="#ffffff" opacity="1.00" d=" M 220.36 101.32 C 222.18 100.39 225.07 101.69 224.55 104.02 C 225.08 106.88 220.76 107.85 219.47 105.69 C 218.47 104.42 218.53 101.82 220.36 101.32 Z" />
<path fill="#ffffff" opacity="1.00" d=" M 38.11 182.08 C 39.54 180.47 41.63 181.22 43.31 181.88 C 43.12 183.52 43.92 186.30 41.54 186.58 C 38.82 187.57 36.83 184.43 38.11 182.08 Z" />
<path fill="#ffffff" opacity="1.00" d=" M 212.35 181.34 C 214.13 180.37 216.87 181.71 216.50 183.95 C 216.63 186.05 214.27 187.24 212.48 186.52 C 210.22 186.06 210.28 182.04 212.35 181.34 Z" />
<path fill="#ffffff" opacity="1.00" d=" M 41.40 211.41 C 43.08 210.28 46.03 211.74 45.54 213.97 C 45.58 216.43 42.58 217.62 40.72 216.35 C 39.22 215.03 39.67 212.33 41.40 211.41 Z" />
<path fill="#ffffff" opacity="1.00" d=" M 209.65 211.64 C 212.52 209.16 216.45 214.17 213.26 216.30 C 210.46 218.66 206.90 213.74 209.65 211.64 Z" />
<path fill="#ffffff" opacity="1.00" d=" M 79.35 243.47 C 82.15 241.12 85.96 244.85 83.56 247.67 C 80.96 250.37 76.63 246.03 79.35 243.47 Z" />
<path fill="#ffffff" opacity="1.00" d=" M 171.30 243.21 C 174.16 241.25 177.49 245.54 174.72 247.71 C 171.77 250.63 167.98 245.28 171.30 243.21 Z" />
<path fill="#ffffff" opacity="1.00" d=" M 46.17 254.10 C 48.14 252.60 51.58 254.15 50.85 256.82 C 50.74 259.16 47.89 259.73 46.15 258.77 C 44.85 257.56 44.78 255.27 46.17 254.10 Z" />
<path fill="#ffffff" opacity="1.00" d=" M 204.11 254.20 C 206.96 251.80 210.96 255.65 208.38 258.45 C 205.64 261.06 201.51 256.99 204.11 254.20 Z" />
</g>
<g id="#191922ff">
<path fill="#191922" opacity="1.00" d=" M 54.47 21.87 C 53.20 17.58 58.54 13.29 62.40 15.72 C 65.41 17.23 65.86 20.87 64.82 23.78 C 69.65 28.70 74.82 33.32 79.41 38.45 C 79.81 45.13 79.47 51.85 79.56 58.55 C 87.17 65.66 94.25 73.32 101.80 80.49 C 103.31 79.99 104.82 79.48 106.34 78.97 C 106.36 72.34 106.39 65.70 106.32 59.06 C 103.69 57.60 101.19 54.59 102.52 51.41 C 103.92 47.58 109.47 46.56 111.97 49.89 C 114.81 52.94 112.49 57.53 109.11 58.96 C 109.05 65.33 109.10 71.71 109.08 78.08 C 115.07 76.05 121.15 74.23 127.07 71.98 C 133.05 74.19 139.15 76.04 145.18 78.10 C 145.17 71.74 145.22 65.38 145.15 59.02 C 142.47 57.59 139.98 54.52 141.38 51.34 C 142.84 47.47 148.55 46.58 150.94 50.07 C 153.60 53.17 151.21 57.53 147.94 58.99 C 147.89 65.65 147.92 72.31 147.93 78.97 C 149.43 79.49 150.93 80.00 152.44 80.52 C 159.98 73.30 167.25 65.79 174.67 58.45 C 174.74 52.27 174.62 46.08 174.71 39.90 C 174.46 38.42 175.69 37.47 176.58 36.52 C 180.89 32.27 185.23 28.05 189.47 23.73 C 188.36 20.87 188.84 17.25 191.81 15.76 C 195.63 13.24 201.11 17.56 199.80 21.86 C 199.10 25.58 194.56 27.08 191.34 25.56 C 186.71 30.23 182.10 34.91 177.42 39.53 C 177.39 45.71 177.48 51.90 177.41 58.09 C 177.66 59.84 176.08 60.89 175.06 62.03 C 168.49 68.46 162.10 75.08 155.49 81.48 C 161.93 83.82 168.28 86.41 174.68 88.87 C 178.06 85.56 181.30 82.10 184.84 78.95 C 186.31 78.98 187.78 79.01 189.26 79.03 C 195.78 72.59 202.07 65.91 208.70 59.59 C 214.71 58.79 220.93 59.41 227.02 59.28 C 228.81 58.65 228.94 62.42 226.95 61.72 C 221.45 61.84 215.94 61.75 210.44 61.72 C 204.57 67.43 198.83 73.28 192.95 78.99 C 204.74 79.03 216.52 78.95 228.31 79.03 C 228.58 80.63 227.96 82.26 226.05 81.75 C 212.63 81.82 199.21 81.67 185.80 81.83 C 182.69 84.15 180.28 87.29 177.44 89.92 C 181.08 91.74 185.65 92.31 188.65 94.97 C 187.08 110.41 184.44 125.77 180.42 140.77 C 184.13 140.74 187.84 140.75 191.55 140.75 C 191.66 128.02 191.30 115.28 191.74 102.56 C 199.85 102.56 207.99 102.22 216.08 102.76 C 217.20 99.63 220.83 97.10 224.06 98.91 C 228.00 100.56 228.27 106.54 224.70 108.73 C 221.31 110.89 216.71 108.59 216.11 104.67 C 208.95 105.97 201.54 104.91 194.28 105.25 C 194.20 117.91 194.46 130.57 194.14 143.22 C 189.31 143.79 184.44 143.39 179.59 143.51 C 177.84 149.65 175.56 155.61 173.22 161.54 C 179.86 168.55 186.67 175.40 193.27 182.45 C 198.13 182.52 203.00 182.51 207.88 182.46 C 209.13 179.44 212.68 177.27 215.86 178.83 C 220.37 180.26 220.06 187.38 215.77 188.92 C 212.60 190.58 209.37 188.06 207.98 185.28 C 202.77 185.02 197.48 185.68 192.31 184.96 C 186.43 179.30 180.88 173.29 175.23 167.41 C 175.32 182.43 175.25 197.46 175.27 212.49 C 185.52 212.40 195.76 212.56 206.02 212.47 C 207.34 209.24 211.47 206.91 214.60 209.29 C 219.07 211.74 217.14 219.64 211.96 219.47 C 209.06 219.98 207.09 217.61 206.02 215.27 C 199.86 215.23 193.71 215.26 187.55 215.25 C 187.54 222.12 187.56 229.00 187.54 235.87 C 192.73 241.08 197.87 246.32 203.12 251.47 C 205.93 250.39 209.78 250.75 211.24 253.73 C 213.50 257.84 208.83 263.53 204.38 261.56 C 201.08 260.38 200.10 256.37 201.16 253.30 C 195.77 247.77 190.26 242.37 184.83 236.88 C 184.80 229.67 184.83 222.46 184.82 215.25 C 180.78 215.26 176.74 215.28 172.70 215.18 C 172.34 199.48 172.62 183.76 172.56 168.04 C 172.56 166.71 172.41 165.40 172.09 164.11 C 166.31 176.28 158.91 188.11 148.09 196.43 C 148.11 202.97 148.03 209.52 148.10 216.07 C 147.89 217.39 149.22 218.13 149.92 219.03 C 157.02 226.05 164.06 233.12 171.20 240.09 C 174.41 239.70 178.43 241.35 178.44 245.09 C 179.09 249.53 173.34 252.97 169.80 250.16 C 166.76 248.34 166.94 244.20 168.62 241.50 C 160.88 233.76 153.10 226.07 145.38 218.32 C 145.35 211.63 145.28 204.93 145.43 198.24 C 139.99 201.88 133.62 203.82 127.18 204.68 C 120.73 203.80 114.33 201.94 108.89 198.26 C 108.76 204.99 109.29 211.78 108.65 218.46 C 101.19 226.33 93.30 233.81 85.67 241.53 C 87.38 244.28 87.46 248.52 84.29 250.27 C 80.75 252.92 75.17 249.40 75.83 245.08 C 75.82 241.39 79.82 239.67 83.01 240.13 C 90.86 232.58 98.47 224.80 106.19 217.13 C 106.13 210.21 106.27 203.29 106.12 196.37 C 95.22 187.98 87.82 176.05 81.99 163.80 C 81.39 180.84 81.96 197.92 81.69 214.98 C 77.63 215.46 73.53 215.20 69.45 215.25 C 69.44 222.46 69.46 229.66 69.43 236.87 C 63.99 242.34 58.54 247.80 53.10 253.27 C 54.19 256.46 53.09 260.63 49.56 261.67 C 44.97 263.34 40.57 257.28 43.26 253.32 C 44.89 250.65 48.45 250.47 51.13 251.47 C 56.36 246.30 61.54 241.08 66.72 235.86 C 66.70 228.99 66.72 222.12 66.71 215.25 C 60.60 215.24 54.48 215.28 48.36 215.22 C 47.09 218.76 42.73 220.94 39.46 218.55 C 35.93 216.16 36.60 210.18 40.66 208.74 C 43.85 207.24 46.97 209.80 48.39 212.52 C 58.59 212.50 68.80 212.42 79.00 212.49 C 79.00 197.50 79.00 182.51 79.00 167.52 C 74.02 172.70 68.98 177.81 64.03 183.02 C 63.10 183.76 62.43 185.14 61.10 185.16 C 56.20 185.41 51.28 185.17 46.37 185.24 C 44.90 188.09 41.52 190.67 38.29 188.84 C 34.34 187.19 33.91 180.69 38.01 179.00 C 41.25 177.16 45.13 179.32 46.45 182.51 C 51.24 182.49 56.03 182.49 60.83 182.50 C 67.62 175.58 74.32 168.55 81.04 161.55 C 78.73 155.62 76.37 149.70 74.71 143.54 C 69.84 143.32 64.92 143.90 60.07 143.14 C 59.89 130.51 60.04 117.88 59.99 105.25 C 52.92 105.15 45.84 105.46 38.79 105.10 C 38.72 104.46 38.58 103.19 38.51 102.55 C 46.48 102.43 54.44 102.52 62.40 102.50 C 63.14 115.22 62.51 128.01 62.73 140.75 C 66.42 140.74 70.12 140.73 73.82 140.78 C 69.71 125.67 67.33 110.18 65.42 94.66 C 69.05 92.70 73.02 91.50 76.82 89.93 C 74.14 87.20 71.43 84.51 68.76 81.77 C 55.17 81.76 41.58 81.77 27.99 81.74 C 26.19 82.07 25.34 80.70 25.74 79.07 C 37.58 78.90 49.42 79.05 61.26 79.00 C 55.51 73.23 49.75 67.47 43.94 61.75 C 38.61 61.73 33.28 61.81 27.94 61.75 C 26.20 62.18 25.30 60.88 25.85 59.29 C 32.36 59.36 38.92 58.94 45.41 59.46 C 52.14 65.72 58.37 72.50 64.92 78.95 C 66.87 79.19 69.36 78.39 70.79 80.13 C 73.75 83.00 76.59 85.98 79.52 88.88 C 85.95 86.43 92.31 83.79 98.79 81.49 C 91.54 74.24 84.15 67.11 77.09 59.69 C 76.32 53.00 77.36 46.16 76.62 39.48 C 72.18 34.71 67.45 30.19 62.86 25.56 C 59.63 27.01 55.18 25.62 54.47 21.87 M 58.23 18.21 C 56.83 19.17 56.63 21.15 57.53 22.51 C 59.10 24.32 62.74 23.47 62.70 20.85 C 63.23 18.37 60.14 17.01 58.23 18.21 M 192.36 18.40 C 190.87 19.80 191.56 22.33 193.13 23.37 C 195.24 24.18 197.91 22.40 197.20 20.02 C 196.89 17.79 193.99 17.22 192.36 18.40 M 105.34 51.37 C 104.57 52.80 104.63 54.93 106.10 55.91 C 107.78 56.34 110.20 56.26 110.52 54.09 C 111.33 51.08 107.40 49.45 105.34 51.37 M 144.35 51.39 C 144.18 51.80 143.85 52.61 143.68 53.02 C 142.88 56.57 148.99 57.42 149.32 53.98 C 150.31 51.04 146.28 49.43 144.35 51.39 M 98.44 84.62 C 88.38 88.32 78.43 92.32 68.41 96.13 C 71.54 122.35 76.46 149.10 89.49 172.42 C 97.39 185.94 109.24 199.18 125.56 201.50 C 125.61 159.59 125.55 117.67 125.60 75.76 C 116.49 78.53 107.49 81.67 98.44 84.62 M 128.51 75.81 C 128.52 117.71 128.46 159.62 128.54 201.52 C 136.33 200.34 143.68 196.78 149.52 191.50 C 159.52 182.63 166.46 170.85 171.48 158.59 C 179.55 138.69 183.35 117.38 185.86 96.15 C 166.99 88.69 148.01 81.44 128.51 75.81 M 220.36 101.32 C 218.53 101.82 218.47 104.42 219.47 105.69 C 220.76 107.85 225.08 106.88 224.55 104.02 C 225.07 101.69 222.18 100.39 220.36 101.32 M 38.11 182.08 C 36.83 184.43 38.82 187.57 41.54 186.58 C 43.92 186.30 43.12 183.52 43.31 181.88 C 41.63 181.22 39.54 180.47 38.11 182.08 M 212.35 181.34 C 210.28 182.04 210.22 186.06 212.48 186.52 C 214.27 187.24 216.63 186.05 216.50 183.95 C 216.87 181.71 214.13 180.37 212.35 181.34 M 41.40 211.41 C 39.67 212.33 39.22 215.03 40.72 216.35 C 42.58 217.62 45.58 216.43 45.54 213.97 C 46.03 211.74 43.08 210.28 41.40 211.41 M 209.65 211.64 C 206.90 213.74 210.46 218.66 213.26 216.30 C 216.45 214.17 212.52 209.16 209.65 211.64 M 79.35 243.47 C 76.63 246.03 80.96 250.37 83.56 247.67 C 85.96 244.85 82.15 241.12 79.35 243.47 M 171.30 243.21 C 167.98 245.28 171.77 250.63 174.72 247.71 C 177.49 245.54 174.16 241.25 171.30 243.21 M 46.17 254.10 C 44.78 255.27 44.85 257.56 46.15 258.77 C 47.89 259.73 50.74 259.16 50.85 256.82 C 51.58 254.15 48.14 252.60 46.17 254.10 M 204.11 254.20 C 201.51 256.99 205.64 261.06 208.38 258.45 C 210.96 255.65 206.96 251.80 204.11 254.20 Z" />
<path fill="#191922" opacity="1.00" d=" M 17.37 55.51 C 20.60 54.08 25.31 56.17 25.35 60.00 C 25.97 63.82 21.67 67.34 18.09 65.75 C 13.56 64.68 13.26 57.29 17.37 55.51 M 18.24 58.23 C 16.50 59.22 16.68 61.84 18.27 62.90 C 20.13 64.59 23.01 62.34 22.69 60.12 C 22.67 57.97 19.85 57.21 18.24 58.23 Z" />
<path fill="#191922" opacity="1.00" d=" M 232.34 55.51 C 235.54 54.08 239.91 56.39 239.98 60.05 C 240.45 64.30 235.14 67.99 231.52 65.27 C 227.58 63.23 228.01 56.76 232.34 55.51 M 232.37 58.57 C 229.59 61.17 233.99 65.54 236.44 62.48 C 239.14 59.92 234.86 56.02 232.37 58.57 Z" />
<path fill="#191922" opacity="1.00" d=" M 17.40 75.26 C 20.75 73.70 25.25 76.24 25.34 80.01 C 25.64 83.92 21.02 87.43 17.48 85.34 C 13.57 83.53 13.59 77.17 17.40 75.26 M 18.18 78.03 C 15.04 80.00 18.72 85.34 21.65 82.74 C 24.38 80.36 21.35 75.84 18.18 78.03 Z" />
<path fill="#191922" opacity="1.00" d=" M 232.29 75.29 C 236.83 72.98 242.22 79.06 239.16 83.25 C 237.05 86.98 230.96 86.67 229.47 82.57 C 227.52 79.95 229.71 76.48 232.29 75.29 M 232.17 78.28 C 229.32 81.41 235.11 85.65 236.84 81.79 C 238.74 78.89 234.49 76.09 232.17 78.28 Z" />
<path fill="#191922" opacity="1.00" d=" M 29.41 99.40 C 32.23 97.06 36.80 98.82 37.82 102.18 C 39.37 105.65 35.88 110.18 32.07 109.47 C 27.03 109.51 25.13 101.90 29.41 99.40 M 31.30 101.28 C 28.37 102.17 29.57 107.80 32.84 106.78 C 37.11 106.54 35.45 99.16 31.30 101.28 Z" />
<path fill="#191922" opacity="1.00" d=" M 72.11 98.99 C 72.63 98.70 73.66 98.13 74.18 97.85 C 76.89 119.95 80.50 142.40 90.15 162.70 C 91.62 165.76 93.68 168.52 94.86 171.71 C 94.31 173.13 93.00 173.07 92.30 171.82 C 85.70 161.71 81.76 150.15 78.59 138.58 C 75.50 125.57 72.52 112.38 72.11 98.99 Z" />
<path fill="#191922" opacity="1.00" d=" M 95.29 173.11 C 97.07 172.44 97.95 175.39 96.06 175.77 C 94.36 176.35 93.57 173.53 95.29 173.11 Z" />
</g>
<g id="#0298b1ff">
<path fill="#0298b1" opacity="1.00" d=" M 98.44 84.62 C 107.49 81.67 116.49 78.53 125.60 75.76 C 125.55 117.67 125.61 159.59 125.56 201.50 C 109.24 199.18 97.39 185.94 89.49 172.42 C 76.46 149.10 71.54 122.35 68.41 96.13 C 78.43 92.32 88.38 88.32 98.44 84.62 M 72.11 98.99 C 72.52 112.38 75.50 125.57 78.59 138.58 C 81.76 150.15 85.70 161.71 92.30 171.82 C 93.00 173.07 94.31 173.13 94.86 171.71 C 93.68 168.52 91.62 165.76 90.15 162.70 C 80.50 142.40 76.89 119.95 74.18 97.85 C 73.66 98.13 72.63 98.70 72.11 98.99 M 95.29 173.11 C 93.57 173.53 94.36 176.35 96.06 175.77 C 97.95 175.39 97.07 172.44 95.29 173.11 Z" />
<path fill="#0298b1" opacity="1.00" d=" M 128.51 75.81 C 148.01 81.44 166.99 88.69 185.86 96.15 C 183.35 117.38 179.55 138.69 171.48 158.59 C 166.46 170.85 159.52 182.63 149.52 191.50 C 143.68 196.78 136.33 200.34 128.54 201.52 C 128.46 159.62 128.52 117.71 128.51 75.81 Z" />
</g>
</svg>
