<?xml version="1.0" encoding="UTF-8" ?>
<!DOCTYPE svg PUBLIC "-//W3C//DTD SVG 1.1//EN" "http://www.w3.org/Graphics/SVG/1.1/DTD/svg11.dtd">
<svg width="250pt" height="266pt" viewBox="0 0 250 266" version="1.1" xmlns="http://www.w3.org/2000/svg">
<g id="#ffffffff">
<path fill="#ffffff" opacity="1.00" d=" M 59.44 6.42 C 61.62 5.65 63.89 7.67 63.16 9.95 C 62.99 12.65 58.35 13.06 57.58 10.52 C 57.06 8.97 57.50 6.62 59.44 6.42 Z" />
<path fill="#ffffff" opacity="1.00" d=" M 194.47 6.43 C 198.44 4.76 200.09 11.91 195.88 12.19 C 192.36 13.10 191.13 7.19 194.47 6.43 Z" />
<path fill="#ffffff" opacity="1.00" d=" M 105.84 39.87 C 107.48 39.48 109.47 38.79 110.81 40.26 C 112.40 42.57 109.98 46.26 107.23 44.76 C 104.97 44.25 105.58 41.52 105.84 39.87 Z" />
<path fill="#ffffff" opacity="1.00" d=" M 146.49 39.42 C 150.18 37.88 151.95 44.29 148.11 44.89 C 144.55 46.21 142.85 40.05 146.49 39.42 Z" />
<path fill="#ffffff" opacity="1.00" d=" M 234.40 46.51 C 236.50 45.46 239.18 47.84 238.45 50.01 C 238.21 51.57 236.63 52.78 235.07 52.16 C 232.20 52.08 231.83 47.30 234.40 46.51 Z" />
<path fill="#ffffff" opacity="1.00" d=" M 17.58 47.48 C 19.66 44.47 24.66 47.43 22.72 50.71 C 20.96 54.44 15.28 50.91 17.58 47.48 Z" />
<path fill="#ffffff" opacity="1.00" d=" M 234.49 66.56 C 237.95 64.74 240.37 70.55 236.78 71.95 C 233.36 73.58 231.01 67.96 234.49 66.56 Z" />
<path fill="#ffffff" opacity="1.00" d=" M 17.62 67.46 C 19.93 64.10 25.02 68.43 22.37 71.39 C 19.75 73.93 15.60 70.56 17.62 67.46 Z" />
<path fill="#ffffff" opacity="1.00" d=" M 31.38 90.37 C 33.62 89.02 36.93 91.52 35.54 94.02 C 34.80 96.57 31.04 96.16 30.08 94.03 C 29.79 92.73 29.94 90.92 31.38 90.37 Z" />
<path fill="#ffffff" opacity="1.00" d=" M 221.32 90.45 C 224.94 87.93 227.86 94.52 223.85 95.57 C 220.65 96.97 218.34 92.04 221.32 90.45 Z" />
<path fill="#ffffff" opacity="1.00" d=" M 39.31 170.44 C 42.65 168.20 45.93 173.47 42.58 175.44 C 39.38 177.92 36.19 172.41 39.31 170.44 Z" />
<path fill="#ffffff" opacity="1.00" d=" M 213.33 170.33 C 214.82 169.62 217.18 170.12 217.55 171.97 C 218.31 174.06 216.19 176.44 214.06 175.90 C 211.37 175.75 211.06 171.20 213.33 170.33 Z" />
<path fill="#ffffff" opacity="1.00" d=" M 41.41 200.65 C 43.60 199.33 46.55 201.56 45.90 204.01 C 45.75 206.12 42.83 206.87 41.35 205.60 C 39.65 204.55 39.68 201.63 41.41 200.65 Z" />
<path fill="#ffffff" opacity="1.00" d=" M 211.45 200.59 C 215.30 198.52 217.61 206.12 213.03 206.20 C 209.65 206.89 208.64 201.92 211.45 200.59 Z" />
<path fill="#ffffff" opacity="1.00" d=" M 80.32 232.39 C 83.59 230.30 86.70 235.40 83.54 237.38 C 80.29 240.07 76.92 234.21 80.32 232.39 Z" />
<path fill="#ffffff" opacity="1.00" d=" M 172.34 232.43 C 176.02 229.97 178.78 236.55 174.97 237.80 C 171.56 239.38 169.29 234.07 172.34 232.43 Z" />
<path fill="#ffffff" opacity="1.00" d=" M 45.84 248.11 C 45.44 246.18 45.10 242.93 47.92 242.84 C 51.08 241.87 52.63 246.74 50.15 248.23 C 48.83 249.19 47.25 248.31 45.84 248.11 Z" />
<path fill="#ffffff" opacity="1.00" d=" M 206.17 243.05 C 207.70 242.32 210.05 243.10 210.22 244.99 C 210.83 247.09 208.55 249.31 206.49 248.59 C 203.74 248.18 203.89 244.06 206.17 243.05 Z" />
</g>
<g id="#191a23ff">
<path fill="#191a23" opacity="1.00" d=" M 55.50 6.42 C 57.42 2.86 63.55 2.97 65.25 6.68 C 66.28 8.47 65.61 10.52 65.08 12.35 C 70.03 17.30 75.04 22.19 80.02 27.11 C 80.10 33.78 80.04 40.46 80.06 47.14 C 87.13 54.34 94.40 61.33 101.46 68.55 C 103.08 70.16 104.55 72.24 107.03 72.49 C 107.08 64.24 107.06 55.99 107.04 47.75 C 104.95 46.53 102.77 44.73 102.87 42.05 C 102.69 37.57 108.87 34.70 112.04 38.07 C 115.60 40.91 113.48 46.27 109.73 47.78 C 109.69 55.93 109.72 64.08 109.71 72.24 C 121.83 72.24 133.94 72.24 146.05 72.24 C 146.08 64.10 146.02 55.95 146.08 47.81 C 142.80 46.35 140.34 42.07 142.94 38.89 C 145.34 35.23 151.33 36.29 152.61 40.35 C 153.82 43.52 151.37 46.40 148.73 47.78 C 148.70 56.02 148.67 64.27 148.74 72.51 C 151.52 72.15 153.08 69.71 154.96 67.94 C 161.30 61.62 167.58 55.24 173.95 48.94 C 174.68 48.08 175.89 47.31 175.69 46.00 C 175.78 39.69 175.63 33.38 175.75 27.07 C 180.70 22.11 185.77 17.28 190.72 12.31 C 189.95 10.26 189.44 7.78 190.97 5.93 C 193.71 1.97 201.24 3.93 200.98 9.08 C 201.13 13.60 196.22 15.91 192.34 14.29 C 187.69 19.01 183.01 23.69 178.33 28.37 C 178.32 34.57 178.39 40.76 178.32 46.96 C 178.56 48.45 177.20 49.37 176.34 50.34 C 168.89 57.57 161.65 65.02 154.24 72.30 C 163.15 72.08 172.07 72.46 180.97 72.11 C 182.56 71.05 183.72 69.49 185.22 68.31 C 186.79 67.75 188.51 68.08 190.15 67.97 C 196.78 61.33 203.50 54.78 210.02 48.03 C 216.46 48.02 222.92 47.90 229.36 48.07 C 229.45 48.60 229.62 49.68 229.71 50.22 C 223.62 50.90 217.45 50.30 211.33 50.53 C 205.56 56.37 199.75 62.18 193.95 68.00 C 205.74 68.06 217.54 67.89 229.34 68.07 C 229.42 68.61 229.59 69.69 229.67 70.23 C 215.39 70.83 201.04 70.40 186.75 70.49 C 185.55 71.71 184.36 72.94 183.18 74.17 C 183.21 92.70 183.18 111.22 183.19 129.75 C 186.34 129.75 189.48 129.75 192.63 129.74 C 192.74 117.02 192.40 104.29 192.81 91.57 C 200.88 91.69 209.07 90.95 217.05 91.93 L 217.22 93.15 C 216.90 93.40 216.24 93.90 215.91 94.15 C 209.04 94.41 202.15 94.17 195.28 94.25 C 195.24 106.94 195.36 119.62 195.21 132.30 C 191.21 132.65 187.20 132.47 183.19 132.51 C 183.18 141.61 183.21 150.71 183.18 159.81 C 186.90 163.84 190.82 167.69 194.56 171.72 C 199.40 171.76 204.24 171.76 209.09 171.72 C 210.30 168.36 214.46 166.36 217.65 168.40 C 222.30 170.62 220.17 178.79 215.01 178.48 C 212.14 178.95 210.25 176.54 209.13 174.28 C 203.82 174.20 198.51 174.31 193.19 174.21 C 189.87 170.70 186.46 167.29 183.16 163.75 C 183.11 169.82 183.40 175.90 183.04 181.95 C 181.55 183.65 178.34 182.39 176.18 182.77 C 176.18 189.18 176.18 195.59 176.18 202.00 C 186.48 201.99 196.78 202.03 207.09 201.98 C 208.25 198.64 212.31 196.65 215.51 198.57 C 220.30 200.70 218.16 209.04 212.97 208.73 C 210.13 209.20 208.21 206.86 207.27 204.51 C 201.02 204.50 194.77 204.51 188.52 204.51 C 188.51 211.37 188.53 218.23 188.51 225.10 C 193.79 230.38 199.07 235.65 204.35 240.94 C 206.19 240.50 208.19 239.93 209.96 240.98 C 212.74 242.10 213.57 245.77 212.28 248.29 C 210.63 252.09 204.22 252.16 202.47 248.42 C 201.47 246.69 202.03 244.64 202.24 242.79 C 197.14 237.53 191.84 232.45 186.73 227.20 C 185.50 226.15 185.99 224.41 185.85 223.02 C 185.89 216.85 185.87 210.68 185.88 204.50 C 181.78 204.47 177.68 204.65 173.60 204.31 C 173.46 197.13 173.57 189.94 173.53 182.76 C 165.31 182.76 157.10 182.76 148.89 182.76 C 148.88 190.69 148.88 198.62 148.89 206.56 C 156.76 214.00 164.15 221.96 171.99 229.44 C 175.89 228.46 180.27 231.87 179.27 236.03 C 178.72 240.27 172.86 242.08 169.99 238.98 C 167.73 236.83 168.05 233.34 169.73 230.95 C 161.91 223.19 154.07 215.45 146.28 207.65 C 146.16 199.36 146.26 191.06 146.22 182.76 C 133.99 182.76 121.77 182.76 109.54 182.76 C 109.42 191.02 109.76 199.29 109.39 207.53 C 101.88 215.59 93.66 222.98 86.03 230.94 C 87.40 233.17 88.11 236.13 86.29 238.34 C 83.77 242.23 76.96 240.60 76.47 235.96 C 75.52 231.75 79.96 228.48 83.85 229.42 C 91.58 221.82 99.12 214.04 106.87 206.45 C 106.93 198.55 106.88 190.66 106.89 182.76 C 98.67 182.76 90.45 182.75 82.23 182.77 C 82.18 189.96 82.34 197.16 82.12 204.35 C 78.07 204.60 74.01 204.52 69.95 204.47 C 69.66 211.78 70.28 219.17 69.65 226.45 C 64.45 232.06 58.82 237.30 53.47 242.79 C 54.39 245.70 53.88 249.42 50.84 250.84 C 48.67 251.11 45.96 251.54 44.39 249.62 C 41.90 247.09 42.54 242.00 46.13 240.84 C 47.83 239.91 49.69 240.59 51.44 240.93 C 56.69 235.63 62.02 230.42 67.26 225.11 C 67.23 218.24 67.26 211.38 67.24 204.51 C 61.01 204.50 54.79 204.50 48.56 204.51 C 47.51 207.15 45.12 209.44 42.05 208.68 C 37.24 208.23 35.76 200.44 40.36 198.50 C 43.61 196.64 47.54 198.77 48.76 202.05 C 59.04 201.93 69.32 202.04 79.60 201.99 C 79.58 195.58 79.60 189.18 79.58 182.77 C 77.73 182.77 75.88 182.82 74.04 182.71 C 71.96 182.95 72.77 180.22 72.56 179.02 C 72.60 173.90 72.52 168.79 72.63 163.67 C 69.40 167.28 65.89 170.62 62.62 174.19 C 57.30 174.33 51.97 174.21 46.64 174.27 C 45.48 176.39 43.81 178.89 41.00 178.48 C 35.98 178.99 33.43 171.37 37.64 168.67 C 40.82 166.26 45.43 168.12 46.68 171.73 C 51.42 171.68 56.16 171.89 60.88 171.66 C 64.94 167.90 69.03 163.95 72.47 159.61 C 72.74 150.59 72.49 141.54 72.57 132.50 C 68.58 132.50 64.59 132.59 60.61 132.37 C 60.35 119.67 60.57 106.96 60.50 94.26 C 53.42 93.98 46.21 94.80 39.22 93.86 C 39.04 93.31 38.69 92.23 38.52 91.69 C 46.70 91.41 54.92 91.29 63.10 91.74 C 63.17 104.41 63.11 117.08 63.13 129.75 C 66.28 129.75 69.43 129.75 72.58 129.74 C 72.57 111.80 72.57 93.86 72.58 75.92 C 72.92 73.45 70.39 72.12 69.03 70.48 C 55.34 70.59 41.64 70.49 27.94 70.48 C 26.00 71.20 24.90 68.47 26.98 68.10 C 38.56 67.84 50.17 68.08 61.76 68.00 C 55.99 62.15 50.16 56.36 44.39 50.52 C 38.22 50.23 31.96 51.06 25.86 50.08 C 25.34 47.46 28.43 48.05 29.99 47.97 C 35.25 48.15 40.54 47.70 45.78 48.20 C 52.47 54.72 58.98 61.44 65.65 67.98 C 67.14 67.95 68.62 67.98 70.10 68.07 C 71.99 69.11 73.06 71.29 75.06 72.13 C 83.90 72.44 92.77 72.08 101.61 72.30 C 93.50 64.38 85.59 56.26 77.45 48.35 C 77.35 41.65 77.50 34.94 77.37 28.24 C 72.66 23.66 68.08 18.97 63.44 14.33 C 61.78 14.47 60.08 14.97 58.43 14.51 C 55.33 13.43 53.78 9.24 55.50 6.42 M 59.44 6.42 C 57.50 6.62 57.06 8.97 57.58 10.52 C 58.35 13.06 62.99 12.65 63.16 9.95 C 63.89 7.67 61.62 5.65 59.44 6.42 M 194.47 6.43 C 191.13 7.19 192.36 13.10 195.88 12.19 C 200.09 11.91 198.44 4.76 194.47 6.43 M 105.84 39.87 C 105.58 41.52 104.97 44.25 107.23 44.76 C 109.98 46.26 112.40 42.57 110.81 40.26 C 109.47 38.79 107.48 39.48 105.84 39.87 M 146.49 39.42 C 142.85 40.05 144.55 46.21 148.11 44.89 C 151.95 44.29 150.18 37.88 146.49 39.42 M 75.21 74.78 C 75.21 109.93 75.21 145.08 75.22 180.23 C 110.35 180.15 145.49 180.41 180.62 180.10 C 180.38 144.97 180.72 109.84 180.45 74.72 C 145.37 74.84 110.29 74.72 75.21 74.78 M 39.31 170.44 C 36.19 172.41 39.38 177.92 42.58 175.44 C 45.93 173.47 42.65 168.20 39.31 170.44 M 213.33 170.33 C 211.06 171.20 211.37 175.75 214.06 175.90 C 216.19 176.44 218.31 174.06 217.55 171.97 C 217.18 170.12 214.82 169.62 213.33 170.33 M 41.41 200.65 C 39.68 201.63 39.65 204.55 41.35 205.60 C 42.83 206.87 45.75 206.12 45.90 204.01 C 46.55 201.56 43.60 199.33 41.41 200.65 M 211.45 200.59 C 208.64 201.92 209.65 206.89 213.03 206.20 C 217.61 206.12 215.30 198.52 211.45 200.59 M 80.32 232.39 C 76.92 234.21 80.29 240.07 83.54 237.38 C 86.70 235.40 83.59 230.30 80.32 232.39 M 172.34 232.43 C 169.29 234.07 171.56 239.38 174.97 237.80 C 178.78 236.55 176.02 229.97 172.34 232.43 M 45.84 248.11 C 47.25 248.31 48.83 249.19 50.15 248.23 C 52.63 246.74 51.08 241.87 47.92 242.84 C 45.10 242.93 45.44 246.18 45.84 248.11 M 206.17 243.05 C 203.89 244.06 203.74 248.18 206.49 248.59 C 208.55 249.31 210.83 247.09 210.22 244.99 C 210.05 243.10 207.70 242.32 206.17 243.05 Z" />
<path fill="#191a23" opacity="1.00" d=" M 18.17 44.22 C 21.38 42.83 25.79 45.30 25.61 48.99 C 25.87 52.65 21.86 56.10 18.32 54.59 C 13.88 53.20 13.36 45.44 18.17 44.22 M 17.58 47.48 C 15.28 50.91 20.96 54.44 22.72 50.71 C 24.66 47.43 19.66 44.47 17.58 47.48 Z" />
<path fill="#191a23" opacity="1.00" d=" M 233.24 44.39 C 236.40 42.70 241.41 45.01 241.04 48.92 C 241.88 53.16 236.35 56.51 232.89 54.14 C 229.29 52.10 229.05 45.89 233.24 44.39 M 234.40 46.51 C 231.83 47.30 232.20 52.08 235.07 52.16 C 236.63 52.78 238.21 51.57 238.45 50.01 C 239.18 47.84 236.50 45.46 234.40 46.51 Z" />
<path fill="#191a23" opacity="1.00" d=" M 18.19 64.21 C 21.37 62.85 25.77 65.28 25.59 68.94 C 25.86 72.40 22.52 75.57 19.03 74.67 C 13.98 74.14 13.09 65.43 18.19 64.21 M 17.62 67.46 C 15.60 70.56 19.75 73.93 22.37 71.39 C 25.02 68.43 19.93 64.10 17.62 67.46 Z" />
<path fill="#191a23" opacity="1.00" d=" M 233.27 64.38 C 236.91 62.45 242.19 65.73 241.02 70.05 C 240.89 74.78 233.75 76.56 231.30 72.61 C 229.19 70.04 229.97 65.52 233.27 64.38 M 234.49 66.56 C 231.01 67.96 233.36 73.58 236.78 71.95 C 240.37 70.55 237.95 64.74 234.49 66.56 Z" />
<path fill="#191a23" opacity="1.00" d=" M 96.22 81.27 C 98.14 80.88 100.10 80.75 102.05 80.73 C 119.69 80.77 137.33 80.73 154.97 80.75 C 162.95 80.53 170.96 85.75 173.58 93.37 C 174.85 96.76 174.78 100.44 174.80 104.00 C 174.73 121.02 174.86 138.04 174.74 155.06 C 174.82 163.34 168.96 171.27 161.00 173.56 C 158.39 174.26 155.67 174.25 153.00 174.27 C 135.34 174.22 117.68 174.29 100.03 174.24 C 89.76 174.70 80.83 165.13 81.03 155.05 C 80.94 137.71 81.06 120.37 80.98 103.03 C 80.97 99.75 81.01 96.38 82.22 93.29 C 84.35 87.18 89.92 82.53 96.22 81.27 M 96.47 83.66 C 89.19 85.40 83.45 92.54 83.67 100.08 C 83.62 118.04 83.66 136.01 83.65 153.97 C 83.54 158.36 84.95 162.81 87.97 166.06 C 91.39 170.07 96.81 171.80 101.97 171.75 C 119.00 171.75 136.03 171.73 153.06 171.76 C 157.32 171.71 161.92 171.16 165.31 168.34 C 169.76 165.03 172.36 159.54 172.11 153.99 C 172.10 136.01 172.15 118.02 172.09 100.04 C 172.40 90.59 163.36 82.37 154.00 83.25 C 136.65 83.26 119.29 83.26 101.93 83.25 C 100.10 83.28 98.26 83.29 96.47 83.66 Z" />
<path fill="#191a23" opacity="1.00" d=" M 31.36 87.57 C 34.74 86.40 38.56 89.47 38.38 93.00 C 38.49 97.24 32.92 100.12 29.64 97.30 C 25.94 94.83 27.11 88.66 31.36 87.57 M 31.38 90.37 C 29.94 90.92 29.79 92.73 30.08 94.03 C 31.04 96.16 34.80 96.57 35.54 94.02 C 36.93 91.52 33.62 89.02 31.38 90.37 Z" />
<path fill="#191a23" opacity="1.00" d=" M 221.41 87.55 C 225.13 86.32 229.35 90.25 228.23 94.07 C 227.56 97.75 222.62 99.82 219.67 97.32 C 215.93 94.90 217.11 88.57 221.41 87.55 M 221.32 90.45 C 218.34 92.04 220.65 96.97 223.85 95.57 C 227.86 94.52 224.94 87.93 221.32 90.45 Z" />
<path fill="#191a23" opacity="1.00" d=" M 100.17 95.97 C 107.80 95.53 115.47 95.76 123.12 95.80 C 125.04 95.48 124.50 97.85 124.65 98.96 C 124.50 107.15 124.90 115.37 124.44 123.54 C 123.13 124.30 121.47 123.88 120.03 124.03 C 113.43 123.89 106.82 124.21 100.22 123.82 C 100.03 114.54 100.12 105.26 100.17 95.97 M 102.80 98.52 C 102.79 106.09 102.79 113.66 102.81 121.23 C 109.19 121.24 115.58 121.24 121.97 121.23 C 121.99 113.66 121.98 106.09 121.98 98.52 C 115.59 98.50 109.19 98.50 102.80 98.52 Z" />
<path fill="#191a23" opacity="1.00" d=" M 131.17 95.99 C 138.80 95.51 146.47 95.76 154.11 95.81 C 156.03 95.48 155.51 97.81 155.65 98.93 C 155.60 107.22 155.71 115.50 155.57 123.79 C 147.47 124.16 139.34 124.08 131.24 123.84 C 131.02 114.56 131.15 105.27 131.17 95.99 M 133.81 98.52 C 133.80 106.09 133.79 113.66 133.81 121.23 C 140.20 121.25 146.59 121.24 152.98 121.23 C 152.99 113.66 152.99 106.09 152.98 98.52 C 146.59 98.51 140.20 98.50 133.81 98.52 Z" />
<path fill="#191a23" opacity="1.00" d=" M 100.22 131.16 C 106.81 130.81 113.40 131.10 119.99 130.97 C 121.45 131.11 123.10 130.70 124.43 131.44 C 124.92 139.62 124.49 147.85 124.65 156.05 C 124.51 157.18 125.03 159.51 123.09 159.20 C 115.46 159.25 107.81 159.45 100.19 159.05 C 100.10 149.75 100.03 140.46 100.22 131.16 M 102.81 133.77 C 102.79 141.34 102.80 148.91 102.80 156.48 C 109.19 156.50 115.59 156.49 121.98 156.48 C 121.98 148.91 121.99 141.34 121.97 133.77 C 115.58 133.76 109.19 133.75 102.81 133.77 Z" />
<path fill="#191a23" opacity="1.00" d=" M 131.21 131.20 C 139.33 130.90 147.48 130.81 155.59 131.24 C 155.68 139.52 155.61 147.79 155.65 156.07 C 155.50 157.13 156.05 159.45 154.21 159.18 C 146.53 159.24 138.83 159.51 131.17 158.99 C 131.13 149.73 131.07 140.46 131.21 131.20 M 133.81 133.77 C 133.79 141.34 133.79 148.91 133.81 156.48 C 140.20 156.50 146.59 156.49 152.98 156.48 C 152.99 148.91 152.99 141.34 152.98 133.77 C 146.59 133.76 140.20 133.75 133.81 133.77 Z" />
</g>
<g id="#0298b1ff">
<path fill="#0298b1" opacity="1.00" d=" M 75.21 74.78 C 110.29 74.72 145.37 74.84 180.45 74.72 C 180.72 109.84 180.38 144.97 180.62 180.10 C 145.49 180.41 110.35 180.15 75.22 180.23 C 75.21 145.08 75.21 109.93 75.21 74.78 M 96.22 81.27 C 89.92 82.53 84.35 87.18 82.22 93.29 C 81.01 96.38 80.97 99.75 80.98 103.03 C 81.06 120.37 80.94 137.71 81.03 155.05 C 80.83 165.13 89.76 174.70 100.03 174.24 C 117.68 174.29 135.34 174.22 153.00 174.27 C 155.67 174.25 158.39 174.26 161.00 173.56 C 168.96 171.27 174.82 163.34 174.74 155.06 C 174.86 138.04 174.73 121.02 174.80 104.00 C 174.78 100.44 174.85 96.76 173.58 93.37 C 170.96 85.75 162.95 80.53 154.97 80.75 C 137.33 80.73 119.69 80.77 102.05 80.73 C 100.10 80.75 98.14 80.88 96.22 81.27 Z" />
<path fill="#0298b1" opacity="1.00" d=" M 96.47 83.66 C 98.26 83.29 100.10 83.28 101.93 83.25 C 119.29 83.26 136.65 83.26 154.00 83.25 C 163.36 82.37 172.40 90.59 172.09 100.04 C 172.15 118.02 172.10 136.01 172.11 153.99 C 172.36 159.54 169.76 165.03 165.31 168.34 C 161.92 171.16 157.32 171.71 153.06 171.76 C 136.03 171.73 119.00 171.75 101.97 171.75 C 96.81 171.80 91.39 170.07 87.97 166.06 C 84.95 162.81 83.54 158.36 83.65 153.97 C 83.66 136.01 83.62 118.04 83.67 100.08 C 83.45 92.54 89.19 85.40 96.47 83.66 M 100.17 95.97 C 100.12 105.26 100.03 114.54 100.22 123.82 C 106.82 124.21 113.43 123.89 120.03 124.03 C 121.47 123.88 123.13 124.30 124.44 123.54 C 124.90 115.37 124.50 107.15 124.65 98.96 C 124.50 97.85 125.04 95.48 123.12 95.80 C 115.47 95.76 107.80 95.53 100.17 95.97 M 131.17 95.99 C 131.15 105.27 131.02 114.56 131.24 123.84 C 139.34 124.08 147.47 124.16 155.57 123.79 C 155.71 115.50 155.60 107.22 155.65 98.93 C 155.51 97.81 156.03 95.48 154.11 95.81 C 146.47 95.76 138.80 95.51 131.17 95.99 M 100.22 131.16 C 100.03 140.46 100.10 149.75 100.19 159.05 C 107.81 159.45 115.46 159.25 123.09 159.20 C 125.03 159.51 124.51 157.18 124.65 156.05 C 124.49 147.85 124.92 139.62 124.43 131.44 C 123.10 130.70 121.45 131.11 119.99 130.97 C 113.40 131.10 106.81 130.81 100.22 131.16 M 131.21 131.20 C 131.07 140.46 131.13 149.73 131.17 158.99 C 138.83 159.51 146.53 159.24 154.21 159.18 C 156.05 159.45 155.50 157.13 155.65 156.07 C 155.61 147.79 155.68 139.52 155.59 131.24 C 147.48 130.81 139.33 130.90 131.21 131.20 Z" />
<path fill="#0298b1" opacity="1.00" d=" M 102.80 98.52 C 109.19 98.50 115.59 98.50 121.98 98.52 C 121.98 106.09 121.99 113.66 121.97 121.23 C 115.58 121.24 109.19 121.24 102.81 121.23 C 102.79 113.66 102.79 106.09 102.80 98.52 Z" />
<path fill="#0298b1" opacity="1.00" d=" M 133.81 98.52 C 140.20 98.50 146.59 98.51 152.98 98.52 C 152.99 106.09 152.99 113.66 152.98 121.23 C 146.59 121.24 140.20 121.25 133.81 121.23 C 133.79 113.66 133.80 106.09 133.81 98.52 Z" />
<path fill="#0298b1" opacity="1.00" d=" M 102.81 133.77 C 109.19 133.75 115.58 133.76 121.97 133.77 C 121.99 141.34 121.98 148.91 121.98 156.48 C 115.59 156.49 109.19 156.50 102.80 156.48 C 102.80 148.91 102.79 141.34 102.81 133.77 Z" />
<path fill="#0298b1" opacity="1.00" d=" M 133.81 133.77 C 140.20 133.75 146.59 133.76 152.98 133.77 C 152.99 141.34 152.99 148.91 152.98 156.48 C 146.59 156.49 140.20 156.50 133.81 156.48 C 133.79 148.91 133.79 141.34 133.81 133.77 Z" />
</g>
</svg>
