<?xml version="1.0" encoding="UTF-8" ?>
<!DOCTYPE svg PUBLIC "-//W3C//DTD SVG 1.1//EN" "http://www.w3.org/Graphics/SVG/1.1/DTD/svg11.dtd">
<svg width="255pt" height="272pt" viewBox="0 0 255 272" version="1.1" xmlns="http://www.w3.org/2000/svg">
<g id="#ffffffff">
<path fill="#ffffff" opacity="1.00" d=" M 59.14 15.12 C 62.66 13.08 65.34 18.60 61.87 20.35 C 58.59 21.94 55.94 16.71 59.14 15.12 Z" />
<path fill="#ffffff" opacity="1.00" d=" M 193.07 16.07 C 194.56 13.68 199.15 14.88 198.39 17.96 C 198.23 20.36 195.77 20.62 193.90 20.67 C 193.49 19.21 192.04 17.59 193.07 16.07 Z" />
<path fill="#ffffff" opacity="1.00" d=" M 106.07 49.00 C 107.16 46.71 111.31 47.23 111.45 49.93 C 111.36 50.68 111.19 52.16 111.10 52.90 C 109.68 53.01 108.26 53.12 106.84 53.21 C 106.43 51.87 105.20 50.42 106.07 49.00 Z" />
<path fill="#ffffff" opacity="1.00" d=" M 144.68 51.03 C 144.03 48.12 147.71 46.51 149.81 48.25 C 151.13 49.91 149.93 51.70 149.25 53.33 C 147.56 52.92 144.61 53.61 144.68 51.03 Z" />
<path fill="#ffffff" opacity="1.00" d=" M 19.14 55.14 C 23.03 52.73 25.39 60.05 21.00 60.44 C 17.78 61.36 16.25 56.37 19.14 55.14 Z" />
<path fill="#ffffff" opacity="1.00" d=" M 234.16 55.13 C 236.48 53.72 239.78 56.41 238.19 58.89 C 237.70 60.88 235.34 60.34 233.86 60.59 C 233.27 58.88 231.84 56.16 234.16 55.13 Z" />
<path fill="#ffffff" opacity="1.00" d=" M 18.33 75.19 C 19.65 74.17 22.55 74.10 23.09 76.05 C 24.47 78.36 21.49 81.61 19.10 80.14 C 17.16 79.52 17.31 76.61 18.33 75.19 Z" />
<path fill="#ffffff" opacity="1.00" d=" M 234.16 75.04 C 236.42 73.18 239.63 76.50 238.31 78.85 C 237.85 80.75 234.76 81.00 233.65 79.50 C 232.27 78.27 232.69 75.99 234.16 75.04 Z" />
<path fill="#ffffff" opacity="1.00" d=" M 31.03 98.94 C 32.85 97.63 36.25 98.30 36.12 100.96 C 36.76 104.85 29.88 104.97 30.32 101.07 C 30.50 100.54 30.86 99.47 31.03 98.94 Z" />
<path fill="#ffffff" opacity="1.00" d=" M 221.16 98.89 C 222.76 97.41 225.99 98.61 225.84 100.97 C 226.18 103.42 223.15 104.76 221.28 103.56 C 219.66 102.69 219.58 99.85 221.16 98.89 Z" />
<path fill="#ffffff" opacity="1.00" d=" M 40.47 178.46 C 43.77 177.04 45.60 182.09 42.81 183.72 C 42.08 183.86 40.62 184.13 39.89 184.26 C 38.61 182.47 37.54 179.24 40.47 178.46 Z" />
<path fill="#ffffff" opacity="1.00" d=" M 211.97 180.97 C 211.60 178.06 216.36 177.32 217.35 179.79 C 218.34 181.39 216.88 182.92 216.20 184.28 C 214.28 184.17 211.61 183.48 211.97 180.97 Z" />
<path fill="#ffffff" opacity="1.00" d=" M 41.16 209.23 C 42.54 208.35 44.33 208.27 45.65 209.31 C 47.14 211.16 45.67 215.07 42.99 214.18 C 40.46 214.17 39.85 210.94 41.16 209.23 Z" />
<path fill="#ffffff" opacity="1.00" d=" M 211.13 209.04 C 214.59 206.36 217.76 212.71 213.95 213.99 C 210.82 215.63 208.21 210.77 211.13 209.04 Z" />
<path fill="#ffffff" opacity="1.00" d=" M 80.35 240.49 C 84.04 237.86 87.31 244.93 82.97 245.89 C 79.70 247.01 78.01 242.39 80.35 240.49 Z" />
<path fill="#ffffff" opacity="1.00" d=" M 173.12 240.15 C 174.98 239.52 177.16 240.93 176.88 242.99 C 177.27 245.78 173.56 246.84 171.75 245.19 C 170.47 243.51 171.18 240.94 173.12 240.15 Z" />
<path fill="#ffffff" opacity="1.00" d=" M 47.31 251.41 C 50.70 249.18 53.68 255.40 49.86 256.50 C 46.69 258.34 44.20 252.80 47.31 251.41 Z" />
<path fill="#ffffff" opacity="1.00" d=" M 206.21 251.26 C 210.34 249.19 211.89 256.43 207.85 256.75 C 204.61 257.42 203.14 252.33 206.21 251.26 Z" />
</g>
<g id="#191a23ff">
<path fill="#191a23" opacity="1.00" d=" M 55.27 18.95 C 53.89 14.62 59.35 10.19 63.23 12.75 C 66.25 14.28 66.55 17.91 65.58 20.80 C 70.51 25.81 75.56 30.70 80.39 35.81 C 80.33 42.38 80.41 48.96 80.34 55.54 C 85.21 60.00 89.64 64.91 94.48 69.40 C 98.69 68.52 103.01 68.74 107.28 68.76 C 107.28 64.53 107.30 60.30 107.26 56.07 C 105.17 54.65 102.54 52.99 103.11 50.02 C 103.19 45.18 110.15 42.93 112.95 46.99 C 115.69 50.18 113.54 54.61 109.99 55.99 C 109.96 60.24 109.97 64.50 109.98 68.75 C 122.06 68.75 134.14 68.74 146.22 68.75 C 146.22 64.52 146.23 60.29 146.20 56.05 C 143.68 54.62 141.08 52.27 142.19 49.03 C 143.19 44.38 150.12 43.35 152.33 47.62 C 154.51 50.95 152.11 54.60 148.93 56.02 C 148.90 60.27 148.90 64.51 148.93 68.76 C 153.25 68.71 157.59 68.59 161.86 69.37 C 166.51 64.75 171.10 60.07 175.78 55.49 C 175.96 48.98 175.63 42.47 175.92 35.97 C 180.31 30.51 185.81 25.93 190.62 20.80 C 189.58 17.92 189.93 14.32 192.91 12.76 C 196.86 10.14 202.45 14.75 200.88 19.16 C 199.93 22.75 195.61 23.91 192.43 22.62 C 187.82 27.29 183.20 31.96 178.50 36.54 C 178.46 42.70 178.56 48.86 178.48 55.02 C 178.76 56.83 177.14 57.93 176.08 59.09 C 172.14 62.91 168.33 66.86 164.37 70.66 C 166.77 72.66 168.96 75.05 169.93 78.08 C 171.16 82.28 170.66 86.71 170.74 91.02 C 175.34 86.51 179.79 81.85 184.41 77.35 C 186.13 75.28 189.44 77.18 191.23 75.20 C 197.66 69.08 203.69 62.54 210.22 56.53 C 216.57 55.91 223.04 56.26 229.43 56.37 L 229.93 57.67 L 229.18 58.86 C 223.21 59.21 217.22 58.90 211.24 59.00 C 205.50 64.74 199.78 70.51 194.05 76.26 C 206.01 76.39 217.99 75.89 229.94 76.52 C 230.94 73.37 234.46 71.06 237.70 72.49 C 242.71 73.76 242.04 82.16 237.01 82.89 C 233.75 83.79 230.93 81.44 229.99 78.46 C 215.66 79.10 201.27 78.64 186.92 78.75 C 181.61 84.21 175.81 89.27 170.88 95.06 C 170.57 109.36 170.84 123.69 170.75 138.00 C 178.08 138.00 185.40 138.01 192.73 137.99 C 192.77 125.28 192.58 112.57 192.83 99.86 C 200.56 99.73 208.31 99.58 216.03 99.90 C 218.19 99.39 217.18 102.81 215.62 102.42 C 208.89 102.66 202.14 102.42 195.41 102.51 C 195.26 115.00 195.69 127.52 195.20 139.99 L 194.61 140.57 C 186.68 141.04 178.70 140.61 170.75 140.76 C 170.84 145.47 170.55 150.20 170.88 154.90 C 171.89 156.84 173.72 158.18 175.18 159.76 C 181.62 166.39 188.05 173.03 194.44 179.71 C 199.34 179.77 204.25 179.78 209.16 179.70 C 210.66 176.69 214.40 174.17 217.61 176.42 C 222.33 178.76 220.34 187.00 215.03 186.73 C 212.11 187.25 210.41 184.67 209.14 182.53 C 204.02 182.36 198.87 182.78 193.76 182.34 C 187.64 176.79 182.15 170.53 176.30 164.67 C 176.39 179.78 176.33 194.88 176.33 209.99 C 186.60 210.01 196.86 210.01 207.12 209.98 C 208.62 206.98 212.24 204.44 215.50 206.60 C 219.93 208.74 218.63 215.87 213.98 216.77 C 210.93 217.72 208.54 215.17 207.28 212.73 C 201.08 212.79 194.87 212.74 188.67 212.76 C 188.64 219.61 188.70 226.45 188.63 233.29 C 193.78 238.55 199.03 243.72 204.22 248.95 C 207.27 247.77 211.70 248.40 212.71 251.99 C 213.74 254.72 211.98 257.21 210.12 259.02 C 208.35 259.01 206.57 259.01 204.81 259.03 C 202.18 257.05 201.43 253.85 202.28 250.74 C 197.01 245.07 191.01 240.03 186.08 234.09 C 185.80 226.98 186.06 219.87 185.97 212.76 C 182.02 212.32 177.38 213.74 173.85 211.99 C 173.36 195.68 173.84 179.34 173.62 163.02 C 173.52 161.26 171.67 160.23 170.78 158.86 C 170.68 168.92 170.82 178.99 170.72 189.05 C 170.74 193.33 168.63 197.55 165.01 199.90 C 160.45 203.35 154.45 202.77 149.07 202.76 C 149.07 206.73 149.07 210.70 149.08 214.67 C 156.84 222.26 164.45 230.00 172.22 237.59 C 175.23 237.32 179.05 238.49 179.44 241.99 C 180.47 246.37 175.01 250.53 171.20 247.84 C 168.08 246.02 167.87 241.87 169.71 239.04 C 162.06 231.16 154.00 223.63 146.57 215.56 C 146.13 211.31 146.49 207.02 146.39 202.76 C 134.19 202.76 122.00 202.76 109.81 202.76 C 109.68 207.04 110.10 211.36 109.59 215.62 C 102.17 223.66 94.14 231.16 86.51 239.02 C 88.27 241.90 88.13 246.11 84.91 247.89 C 81.07 250.49 75.71 246.31 76.74 241.96 C 77.14 238.50 80.93 237.34 83.91 237.59 C 91.73 230.05 99.33 222.30 107.09 214.71 C 107.12 210.73 107.11 206.74 107.11 202.76 C 101.70 202.77 95.67 203.35 91.10 199.84 C 87.45 197.49 85.41 193.20 85.47 188.90 C 85.39 178.86 85.50 168.81 85.42 158.77 C 84.57 160.19 82.67 161.21 82.61 163.01 C 82.29 179.39 82.92 195.82 82.30 212.19 C 78.50 213.46 74.21 212.45 70.22 212.76 C 70.22 218.85 70.21 224.94 70.24 231.04 C 70.14 232.49 70.54 234.26 69.22 235.32 C 64.19 240.54 58.91 245.52 53.90 250.76 C 54.83 253.92 53.92 257.18 51.21 259.12 C 49.18 258.76 46.60 259.66 45.05 257.96 C 42.38 255.65 42.58 250.54 46.00 249.04 C 47.83 247.90 49.96 248.55 51.91 248.96 C 57.14 243.82 62.26 238.56 67.52 233.44 C 67.55 226.54 67.55 219.64 67.51 212.75 C 61.31 212.77 55.10 212.76 48.90 212.75 C 47.84 214.26 46.91 216.20 44.95 216.68 C 41.41 217.95 37.66 214.55 37.87 210.99 C 38.02 207.64 41.86 204.88 45.06 206.11 C 46.95 206.69 47.95 208.50 49.05 209.98 C 59.32 210.03 69.59 209.99 79.86 210.00 C 79.86 194.90 79.83 179.81 79.87 164.72 C 74.76 169.96 69.64 175.20 64.57 180.49 C 63.60 181.45 62.58 182.74 61.03 182.49 C 56.35 182.59 51.68 182.43 47.01 182.54 C 45.75 184.75 43.95 187.29 41.01 186.73 C 35.80 186.87 33.89 178.78 38.52 176.44 C 41.75 174.15 45.51 176.70 47.05 179.72 C 51.91 179.77 56.77 179.74 61.63 179.75 C 69.41 171.77 77.21 163.79 84.84 155.67 C 86.24 150.99 85.07 145.69 85.44 140.76 C 77.25 140.57 69.02 141.16 60.85 140.43 C 60.72 127.80 60.80 115.16 60.81 102.53 C 54.86 102.48 48.91 102.52 42.97 102.53 C 41.54 102.63 40.18 102.24 38.87 101.71 C 38.09 104.87 34.87 107.71 31.50 106.36 C 27.26 105.07 26.34 98.57 30.38 96.45 C 33.68 94.11 37.92 96.72 38.87 100.24 C 46.96 99.19 55.19 99.93 63.34 99.83 C 63.62 112.53 63.43 125.24 63.43 137.95 C 70.77 138.05 78.11 137.98 85.45 138.00 C 85.35 123.69 85.64 109.36 85.31 95.06 C 80.33 89.28 74.57 84.19 69.23 78.74 C 55.51 78.79 41.77 78.80 28.05 78.70 C 25.78 79.37 26.14 75.88 27.95 76.29 C 39.32 76.16 50.70 76.29 62.07 76.23 C 56.40 70.45 50.64 64.74 44.93 59.00 C 38.85 58.97 32.77 59.07 26.69 58.93 C 26.73 58.26 26.81 56.93 26.85 56.26 C 33.14 56.35 39.46 55.99 45.73 56.42 C 52.40 62.32 58.38 69.01 64.85 75.13 C 66.58 77.20 69.86 75.30 71.63 77.23 C 76.33 81.77 80.84 86.50 85.49 91.09 C 85.48 87.04 85.14 82.94 86.00 78.95 C 86.79 75.53 89.23 72.83 91.83 70.61 C 87.20 66.02 82.43 61.54 78.02 56.74 C 77.22 50.07 77.97 43.24 77.65 36.51 C 72.93 31.90 68.34 27.16 63.64 22.53 C 60.46 24.06 56.03 22.60 55.27 18.95 M 59.14 15.12 C 55.94 16.71 58.59 21.94 61.87 20.35 C 65.34 18.60 62.66 13.08 59.14 15.12 M 193.07 16.07 C 192.04 17.59 193.49 19.21 193.90 20.67 C 195.77 20.62 198.23 20.36 198.39 17.96 C 199.15 14.88 194.56 13.68 193.07 16.07 M 106.07 49.00 C 105.20 50.42 106.43 51.87 106.84 53.21 C 108.26 53.12 109.68 53.01 111.10 52.90 C 111.19 52.16 111.36 50.68 111.45 49.93 C 111.31 47.23 107.16 46.71 106.07 49.00 M 144.68 51.03 C 144.61 53.61 147.56 52.92 149.25 53.33 C 149.93 51.70 151.13 49.91 149.81 48.25 C 147.71 46.51 144.03 48.12 144.68 51.03 M 94.35 72.57 C 90.55 74.50 88.01 78.64 88.16 82.93 C 88.09 117.94 88.15 152.96 88.13 187.97 C 87.96 191.65 89.48 195.38 92.40 197.68 C 95.01 199.97 98.66 199.98 101.94 200.02 C 119.95 199.96 137.97 200.04 155.99 199.98 C 159.68 200.13 163.55 198.81 165.70 195.65 C 168.25 192.68 168.12 188.59 167.95 184.92 C 168.13 150.92 168.05 116.92 168.01 82.92 C 168.35 76.91 163.04 71.24 156.94 71.56 C 138.95 71.42 120.95 71.59 102.96 71.48 C 100.08 71.53 97.05 71.38 94.35 72.57 M 234.16 75.04 C 232.69 75.99 232.27 78.27 233.65 79.50 C 234.76 81.00 237.85 80.75 238.31 78.85 C 239.63 76.50 236.42 73.18 234.16 75.04 M 31.03 98.94 C 30.86 99.47 30.50 100.54 30.32 101.07 C 29.88 104.97 36.76 104.85 36.12 100.96 C 36.25 98.30 32.85 97.63 31.03 98.94 M 40.47 178.46 C 37.54 179.24 38.61 182.47 39.89 184.26 C 40.62 184.13 42.08 183.86 42.81 183.72 C 45.60 182.09 43.77 177.04 40.47 178.46 M 211.97 180.97 C 211.61 183.48 214.28 184.17 216.20 184.28 C 216.88 182.92 218.34 181.39 217.35 179.79 C 216.36 177.32 211.60 178.06 211.97 180.97 M 41.16 209.23 C 39.85 210.94 40.46 214.17 42.99 214.18 C 45.67 215.07 47.14 211.16 45.65 209.31 C 44.33 208.27 42.54 208.35 41.16 209.23 M 211.13 209.04 C 208.21 210.77 210.82 215.63 213.95 213.99 C 217.76 212.71 214.59 206.36 211.13 209.04 M 80.35 240.49 C 78.01 242.39 79.70 247.01 82.97 245.89 C 87.31 244.93 84.04 237.86 80.35 240.49 M 173.12 240.15 C 171.18 240.94 170.47 243.51 171.75 245.19 C 173.56 246.84 177.27 245.78 176.88 242.99 C 177.16 240.93 174.98 239.52 173.12 240.15 M 47.31 251.41 C 44.20 252.80 46.69 258.34 49.86 256.50 C 53.68 255.40 50.70 249.18 47.31 251.41 M 206.21 251.26 C 203.14 252.33 204.61 257.42 207.85 256.75 C 211.89 256.43 210.34 249.19 206.21 251.26 Z" />
<path fill="#191a23" opacity="1.00" d=" M 14.98 58.08 C 14.52 54.47 18.53 51.11 22.00 52.31 C 24.34 52.90 25.38 55.26 26.59 57.10 C 25.78 58.98 25.30 61.30 23.31 62.33 C 20.06 64.65 15.21 61.91 14.98 58.08 M 19.14 55.14 C 16.25 56.37 17.78 61.36 21.00 60.44 C 25.39 60.05 23.03 52.73 19.14 55.14 Z" />
<path fill="#191a23" opacity="1.00" d=" M 231.23 54.40 C 233.05 51.72 237.14 51.30 239.44 53.62 C 241.59 55.11 240.85 57.93 241.10 60.15 C 239.19 61.88 236.76 64.05 233.97 62.89 C 230.54 61.86 228.88 57.22 231.23 54.40 M 234.16 55.13 C 231.84 56.16 233.27 58.88 233.86 60.59 C 235.34 60.34 237.70 60.88 238.19 58.89 C 239.78 56.41 236.48 53.72 234.16 55.13 Z" />
<path fill="#191a23" opacity="1.00" d=" M 18.39 72.52 C 22.19 70.65 27.51 74.69 25.94 78.84 C 25.14 82.93 19.40 84.46 16.59 81.48 C 13.86 78.95 14.63 73.60 18.39 72.52 M 18.33 75.19 C 17.31 76.61 17.16 79.52 19.10 80.14 C 21.49 81.61 24.47 78.36 23.09 76.05 C 22.55 74.10 19.65 74.17 18.33 75.19 Z" />
<path fill="#191a23" opacity="1.00" d=" M 108.55 74.60 C 109.62 73.83 111.29 73.83 111.88 75.20 C 111.86 76.52 110.69 77.33 109.96 78.28 C 109.26 77.15 107.65 76.08 108.55 74.60 Z" />
<path fill="#191a23" opacity="1.00" d=" M 115.03 74.11 C 122.00 73.95 128.99 73.89 135.96 74.15 C 135.91 74.79 135.82 76.06 135.77 76.69 C 128.89 76.81 122.01 76.81 115.13 76.69 C 115.10 76.05 115.05 74.75 115.03 74.11 Z" />
<path fill="#191a23" opacity="1.00" d=" M 139.30 74.47 C 141.33 72.42 143.86 77.01 140.92 77.45 C 138.96 78.38 137.56 75.28 139.30 74.47 Z" />
<path fill="#191a23" opacity="1.00" d=" M 145.09 74.23 C 147.24 72.87 149.33 76.56 146.85 77.32 C 145.06 78.78 143.29 75.32 145.09 74.23 Z" />
<path fill="#191a23" opacity="1.00" d=" M 94.06 81.89 C 116.74 81.63 139.43 81.70 162.11 81.85 C 162.42 105.55 162.16 129.25 162.24 152.95 C 162.13 162.20 162.49 171.47 162.04 180.72 C 139.41 180.78 116.78 180.84 94.15 180.69 C 93.77 173.46 94.04 166.22 93.96 158.99 C 94.02 133.29 93.83 107.59 94.06 81.89 M 96.61 84.61 C 96.70 115.74 96.62 146.86 96.65 177.99 C 117.63 177.95 138.62 178.10 159.60 177.92 C 159.45 146.79 159.60 115.66 159.53 84.53 C 138.56 84.56 117.58 84.40 96.61 84.61 Z" />
<path fill="#191a23" opacity="1.00" d=" M 220.33 96.27 C 224.05 93.91 229.38 97.80 228.37 102.05 C 227.77 105.62 223.29 108.01 220.17 105.86 C 216.57 103.90 216.58 98.06 220.33 96.27 M 221.16 98.89 C 219.58 99.85 219.66 102.69 221.28 103.56 C 223.15 104.76 226.18 103.42 225.84 100.97 C 225.99 98.61 222.76 97.41 221.16 98.89 Z" />
<path fill="#191a23" opacity="1.00" d=" M 164.22 186.23 C 165.14 183.68 163.40 179.10 167.09 178.69 C 167.57 184.48 167.18 191.38 162.10 195.18 C 159.88 197.26 156.73 196.77 153.96 196.71 C 153.95 196.40 153.95 195.78 153.94 195.47 C 158.91 194.88 163.87 191.64 164.22 186.23 Z" />
<path fill="#191a23" opacity="1.00" d=" M 116.29 186.21 C 120.93 184.66 126.11 185.85 130.97 185.47 C 134.42 185.79 138.97 184.35 141.36 187.64 C 143.31 190.15 142.00 194.26 138.91 195.10 C 134.31 195.99 129.59 195.32 124.94 195.54 C 121.88 195.37 118.42 196.10 115.72 194.29 C 113.01 192.35 113.45 187.84 116.29 186.21 M 118.30 188.41 C 116.60 188.56 116.16 190.57 116.90 191.91 C 119.03 193.18 121.62 192.65 123.97 192.78 C 128.84 192.59 133.74 193.09 138.58 192.47 C 140.47 191.20 139.44 187.94 137.13 188.34 C 130.86 188.21 124.56 188.09 118.30 188.41 Z" />
</g>
<g id="#0298b1ff">
<path fill="#0298b1" opacity="1.00" d=" M 94.35 72.57 C 97.05 71.38 100.08 71.53 102.96 71.48 C 120.95 71.59 138.95 71.42 156.94 71.56 C 163.04 71.24 168.35 76.91 168.01 82.92 C 168.05 116.92 168.13 150.92 167.95 184.92 C 168.12 188.59 168.25 192.68 165.70 195.65 C 163.55 198.81 159.68 200.13 155.99 199.98 C 137.97 200.04 119.95 199.96 101.94 200.02 C 98.66 199.98 95.01 199.97 92.40 197.68 C 89.48 195.38 87.96 191.65 88.13 187.97 C 88.15 152.96 88.09 117.94 88.16 82.93 C 88.01 78.64 90.55 74.50 94.35 72.57 M 108.55 74.60 C 107.65 76.08 109.26 77.15 109.96 78.28 C 110.69 77.33 111.86 76.52 111.88 75.20 C 111.29 73.83 109.62 73.83 108.55 74.60 M 115.03 74.11 C 115.05 74.75 115.10 76.05 115.13 76.69 C 122.01 76.81 128.89 76.81 135.77 76.69 C 135.82 76.06 135.91 74.79 135.96 74.15 C 128.99 73.89 122.00 73.95 115.03 74.11 M 139.30 74.47 C 137.56 75.28 138.96 78.38 140.92 77.45 C 143.86 77.01 141.33 72.42 139.30 74.47 M 145.09 74.23 C 143.29 75.32 145.06 78.78 146.85 77.32 C 149.33 76.56 147.24 72.87 145.09 74.23 M 94.06 81.89 C 93.83 107.59 94.02 133.29 93.96 158.99 C 94.04 166.22 93.77 173.46 94.15 180.69 C 116.78 180.84 139.41 180.78 162.04 180.72 C 162.49 171.47 162.13 162.20 162.24 152.95 C 162.16 129.25 162.42 105.55 162.11 81.85 C 139.43 81.70 116.74 81.63 94.06 81.89 M 164.22 186.23 C 163.87 191.64 158.91 194.88 153.94 195.47 C 153.95 195.78 153.95 196.40 153.96 196.71 C 156.73 196.77 159.88 197.26 162.10 195.18 C 167.18 191.38 167.57 184.48 167.09 178.69 C 163.40 179.10 165.14 183.68 164.22 186.23 M 116.29 186.21 C 113.45 187.84 113.01 192.35 115.72 194.29 C 118.42 196.10 121.88 195.37 124.94 195.54 C 129.59 195.32 134.31 195.99 138.91 195.10 C 142.00 194.26 143.31 190.15 141.36 187.64 C 138.97 184.35 134.42 185.79 130.97 185.47 C 126.11 185.85 120.93 184.66 116.29 186.21 Z" />
<path fill="#0298b1" opacity="1.00" d=" M 96.61 84.61 C 117.58 84.40 138.56 84.56 159.53 84.53 C 159.60 115.66 159.45 146.79 159.60 177.92 C 138.62 178.10 117.63 177.95 96.65 177.99 C 96.62 146.86 96.70 115.74 96.61 84.61 Z" />
<path fill="#0298b1" opacity="1.00" d=" M 118.30 188.41 C 124.56 188.09 130.86 188.21 137.13 188.34 C 139.44 187.94 140.47 191.20 138.58 192.47 C 133.74 193.09 128.84 192.59 123.97 192.78 C 121.62 192.65 119.03 193.18 116.90 191.91 C 116.16 190.57 116.60 188.56 118.30 188.41 Z" />
</g>
</svg>
