<?xml version="1.0" encoding="UTF-8" ?>
<!DOCTYPE svg PUBLIC "-//W3C//DTD SVG 1.1//EN" "http://www.w3.org/Graphics/SVG/1.1/DTD/svg11.dtd">
<svg width="318pt" height="282pt" viewBox="0 0 318 282" version="1.1" xmlns="http://www.w3.org/2000/svg">
<g id="#ffffffff">
<path fill="#ffffff" opacity="1.00" d=" M 228.23 24.16 C 230.25 23.04 233.37 24.32 233.02 26.92 C 233.62 29.90 229.38 31.32 227.58 29.29 C 225.91 27.91 226.42 25.17 228.23 24.16 Z" />
<path fill="#ffffff" opacity="1.00" d=" M 249.24 24.39 C 251.69 22.61 255.41 24.81 254.68 27.83 C 254.45 30.37 251.10 30.71 249.29 29.65 C 247.90 28.32 247.93 25.77 249.24 24.39 Z" />
<path fill="#ffffff" opacity="1.00" d=" M 202.16 38.16 C 205.68 35.98 209.23 41.60 205.67 43.73 C 202.21 46.19 198.60 40.07 202.16 38.16 Z" />
<path fill="#ffffff" opacity="1.00" d=" M 114.19 47.08 C 116.45 45.69 120.27 46.92 119.63 50.04 C 119.88 52.69 116.32 53.83 114.53 52.30 C 112.86 51.17 112.71 48.44 114.19 47.08 Z" />
<path fill="#ffffff" opacity="1.00" d=" M 82.09 49.07 C 84.04 48.08 87.02 49.48 86.61 51.93 C 86.79 54.20 84.12 55.91 82.07 55.00 C 79.38 54.37 79.68 49.99 82.09 49.07 Z" />
<path fill="#ffffff" opacity="1.00" d=" M 35.20 55.14 C 37.33 54.07 40.69 55.25 40.22 58.05 C 40.83 61.75 34.35 62.46 33.85 58.98 C 33.69 57.62 33.72 55.77 35.20 55.14 Z" />
<path fill="#ffffff" opacity="1.00" d=" M 292.04 71.00 C 291.63 67.77 296.39 66.71 298.05 69.10 C 299.00 70.81 298.15 72.66 297.24 74.17 C 295.06 74.21 291.61 74.09 292.04 71.00 Z" />
<path fill="#ffffff" opacity="1.00" d=" M 47.47 91.49 C 49.28 90.83 52.04 91.64 51.99 93.94 C 52.58 97.16 48.27 98.93 46.10 96.76 C 45.23 95.05 45.18 92.02 47.47 91.49 Z" />
<path fill="#ffffff" opacity="1.00" d=" M 256.23 124.09 C 255.42 121.26 258.89 119.31 261.15 120.76 C 263.28 121.66 262.32 124.39 262.21 126.12 C 260.14 126.83 256.21 127.27 256.23 124.09 Z" />
<path fill="#ffffff" opacity="1.00" d=" M 293.47 215.60 C 295.80 214.43 298.93 216.32 298.47 219.04 C 297.98 221.74 294.34 222.59 292.54 220.69 C 291.65 219.04 291.78 216.67 293.47 215.60 Z" />
<path fill="#ffffff" opacity="1.00" d=" M 35.47 228.56 C 37.74 227.46 40.62 229.46 40.23 232.00 C 40.22 234.96 36.23 235.39 34.35 233.84 C 33.48 232.20 33.33 229.24 35.47 228.56 Z" />
<path fill="#ffffff" opacity="1.00" d=" M 80.66 235.48 C 82.08 233.34 86.71 234.11 86.62 237.09 C 86.77 238.94 85.10 241.15 83.06 240.46 C 80.43 240.62 79.45 237.41 80.66 235.48 Z" />
<path fill="#ffffff" opacity="1.00" d=" M 113.63 237.44 C 114.87 235.91 117.35 236.14 118.89 237.04 C 119.91 238.48 119.87 240.49 118.93 241.96 C 117.46 242.86 115.38 243.06 113.98 241.95 C 112.90 240.74 113.02 238.83 113.63 237.44 Z" />
<path fill="#ffffff" opacity="1.00" d=" M 202.48 245.54 C 204.82 244.49 207.94 246.28 207.14 249.08 C 207.18 252.65 200.62 252.62 200.75 249.02 C 200.62 247.66 200.92 245.88 202.48 245.54 Z" />
<path fill="#ffffff" opacity="1.00" d=" M 228.47 259.53 C 232.58 257.32 235.09 264.58 230.89 265.57 C 227.20 267.11 224.63 260.80 228.47 259.53 Z" />
<path fill="#ffffff" opacity="1.00" d=" M 250.44 259.45 C 252.72 258.65 255.36 260.42 254.73 262.99 C 254.79 266.04 250.12 266.64 248.80 264.19 C 247.76 262.62 248.25 259.66 250.44 259.45 Z" />
</g>
<g id="#181821ff">
<path fill="#181821" opacity="1.00" d=" M 227.35 21.40 C 232.07 19.05 237.59 24.67 235.26 29.32 C 233.65 33.59 227.09 34.18 224.81 30.22 C 222.64 27.30 224.17 22.87 227.35 21.40 M 228.23 24.16 C 226.42 25.17 225.91 27.91 227.58 29.29 C 229.38 31.32 233.62 29.90 233.02 26.92 C 233.37 24.32 230.25 23.04 228.23 24.16 Z" />
<path fill="#181821" opacity="1.00" d=" M 248.46 21.72 C 252.97 18.75 259.12 23.94 257.17 28.86 C 255.90 33.34 249.16 34.41 246.68 30.41 C 244.47 27.67 245.68 23.53 248.46 21.72 M 249.24 24.39 C 247.93 25.77 247.90 28.32 249.29 29.65 C 251.10 30.71 254.45 30.37 254.68 27.83 C 255.41 24.81 251.69 22.61 249.24 24.39 Z" />
<path fill="#181821" opacity="1.00" d=" M 228.45 35.12 C 228.37 33.30 229.22 32.78 231.00 33.56 C 231.44 46.59 231.11 59.64 231.16 72.68 C 237.43 66.30 243.78 60.01 250.12 53.69 C 250.26 47.07 249.86 40.42 250.31 33.81 L 251.07 33.20 C 251.50 33.31 252.35 33.54 252.78 33.66 C 253.15 40.71 252.88 47.80 252.90 54.86 C 246.09 61.75 239.20 68.56 232.36 75.43 C 230.47 77.03 231.42 79.78 231.10 81.93 C 221.07 91.89 210.88 101.71 201.20 112.01 C 205.39 112.49 209.78 112.52 213.67 114.37 C 216.83 115.77 219.53 117.99 222.06 120.31 C 231.77 110.61 241.45 100.87 251.13 91.13 C 251.96 90.35 252.85 89.36 254.13 89.52 C 260.85 89.37 267.59 89.65 274.31 89.43 C 279.80 84.67 284.73 79.26 289.93 74.18 C 288.31 70.62 289.78 65.65 294.02 64.98 C 298.82 63.67 302.93 69.39 300.57 73.64 C 299.12 76.91 295.01 77.54 291.99 76.22 C 287.14 80.93 282.34 85.69 277.58 90.49 C 276.55 91.46 275.49 92.74 273.91 92.49 C 267.20 92.55 260.49 92.48 253.78 92.50 C 244.00 102.34 234.19 112.15 224.42 122.00 C 234.05 121.97 243.69 122.05 253.33 121.96 C 254.52 118.60 258.38 116.14 261.83 117.86 C 266.17 119.51 266.64 126.47 262.45 128.56 C 258.93 130.84 254.53 128.37 253.19 124.77 C 243.97 124.70 234.74 124.84 225.52 124.69 C 226.68 127.17 227.57 129.77 228.05 132.47 C 233.43 129.19 239.83 127.30 246.16 128.25 C 257.63 129.05 267.64 137.91 270.90 148.78 C 278.98 151.70 285.85 157.81 289.28 165.73 C 294.96 178.10 291.38 193.70 281.08 202.55 C 284.73 206.08 288.25 209.74 291.93 213.24 C 295.62 211.48 301.13 213.49 301.12 218.04 C 302.03 222.96 295.44 226.29 291.72 223.28 C 288.94 221.60 288.95 218.01 289.92 215.28 C 286.25 211.65 282.59 208.00 278.92 204.37 C 273.86 207.65 268.10 210.14 261.97 210.14 C 251.71 210.40 241.45 210.18 231.19 210.25 C 231.19 210.89 231.18 212.16 231.18 212.79 C 237.78 219.56 244.53 226.18 251.21 232.87 C 251.91 233.75 253.14 234.54 252.92 235.85 C 253.02 242.27 252.90 248.69 252.95 255.11 C 252.42 255.42 251.35 256.03 250.81 256.34 C 249.31 249.65 250.49 242.66 250.13 235.85 C 243.83 229.48 237.44 223.21 231.17 216.82 C 231.24 228.23 231.15 239.63 231.22 251.04 C 231.13 252.70 231.60 254.88 229.85 255.87 C 228.14 256.14 228.51 254.16 228.38 253.09 C 228.41 238.83 228.32 224.57 228.40 210.31 C 206.79 210.16 185.18 210.32 163.57 210.23 C 163.55 211.98 163.54 213.73 163.54 215.49 C 177.45 215.63 191.38 215.24 205.29 215.69 C 205.34 224.13 205.56 232.60 205.21 241.04 C 204.91 241.35 204.31 241.99 204.01 242.31 C 203.68 242.01 203.02 241.42 202.69 241.12 C 202.34 233.51 202.65 225.87 202.55 218.25 C 188.67 218.13 174.78 218.48 160.90 218.07 C 160.73 215.47 160.71 212.86 160.72 210.25 C 148.93 210.27 137.15 210.21 125.36 210.29 C 122.81 212.72 120.28 215.17 117.79 217.68 C 117.87 222.95 117.78 228.23 117.85 233.50 C 120.72 234.73 123.23 237.66 122.21 240.97 C 121.75 243.92 118.71 244.96 116.30 245.91 C 113.99 244.87 111.03 243.81 110.59 240.94 C 109.63 237.64 112.07 234.69 114.99 233.55 C 115.03 227.75 114.95 221.95 115.04 216.15 C 117.08 214.14 119.14 212.15 121.25 210.21 C 109.12 210.30 96.99 210.23 84.86 210.25 C 84.75 217.26 84.91 224.28 84.76 231.29 C 89.10 232.54 91.03 238.33 87.73 241.64 C 84.45 245.22 77.57 242.95 77.47 237.98 C 76.90 234.82 79.42 232.44 82.04 231.28 C 81.95 224.52 82.02 217.76 82.00 211.00 C 74.44 211.00 66.87 211.00 59.31 211.00 C 53.57 216.68 47.88 222.41 42.17 228.12 C 43.36 230.86 43.37 234.63 40.46 236.31 C 36.65 239.34 30.43 235.84 31.00 231.03 C 31.15 226.61 36.36 224.55 40.08 226.12 C 46.70 220.15 52.33 213.06 59.39 207.62 C 55.90 205.93 52.63 203.77 49.72 201.21 C 47.58 200.75 45.01 200.41 43.85 198.28 C 42.40 196.45 42.93 194.07 43.15 191.96 C 39.67 184.17 39.36 175.05 42.45 167.08 C 46.91 155.64 58.42 146.75 70.98 147.17 C 69.41 138.60 71.41 129.57 76.49 122.49 C 68.79 114.56 60.78 106.92 53.12 98.96 C 50.80 100.22 47.90 101.18 45.53 99.44 C 41.84 97.50 41.97 91.53 45.55 89.54 C 48.17 87.74 52.09 88.59 53.80 91.25 C 55.28 93.25 53.95 96.33 56.08 97.99 C 63.43 105.47 70.91 112.82 78.32 120.23 C 82.07 115.99 86.90 112.72 92.32 111.02 C 93.82 105.11 96.25 99.35 100.30 94.72 C 94.27 94.75 88.24 94.84 82.21 94.66 C 81.84 90.20 82.04 85.72 82.00 81.25 C 74.04 81.26 66.08 81.25 58.11 81.25 C 52.11 75.33 46.22 69.30 40.31 63.28 C 36.68 64.96 31.75 63.21 31.07 59.00 C 29.84 54.30 35.49 50.11 39.66 52.45 C 43.04 53.91 43.63 58.16 42.27 61.24 C 47.93 67.00 53.81 72.54 59.28 78.49 C 66.85 78.51 74.43 78.49 82.00 78.50 C 82.01 71.65 81.98 64.81 82.02 57.97 C 78.27 56.71 75.85 51.91 78.56 48.54 C 81.11 44.67 87.81 45.64 89.08 50.12 C 90.38 53.48 87.85 56.78 84.80 57.96 C 84.83 69.31 84.86 80.65 84.82 92.00 C 90.75 91.99 96.67 92.02 102.60 91.98 C 108.00 86.31 115.01 82.20 122.65 80.39 C 120.02 78.01 117.50 75.52 114.99 73.02 C 115.01 67.27 115.00 61.53 114.99 55.78 C 111.72 54.41 109.12 50.68 111.01 47.17 C 113.06 42.41 120.88 42.99 122.14 48.04 C 123.37 51.43 120.76 54.47 117.85 55.80 C 117.80 61.18 117.84 66.55 117.82 71.93 C 120.48 74.48 123.11 77.05 125.81 79.57 C 138.36 77.98 151.68 81.86 160.79 90.77 C 160.77 84.21 160.52 77.64 160.95 71.09 C 174.82 70.87 188.69 71.07 202.56 70.99 C 202.67 63.25 202.30 55.49 202.74 47.76 L 203.96 47.08 L 205.15 47.72 C 205.66 55.13 205.21 62.59 205.39 70.02 C 205.42 71.67 205.63 74.47 203.11 73.97 C 189.92 74.05 176.73 73.97 163.55 74.00 C 163.58 80.02 163.49 86.03 163.56 92.05 C 163.41 93.55 164.38 94.77 165.07 96.01 C 177.98 91.91 192.58 97.82 200.12 108.80 C 209.52 99.41 218.80 89.90 228.38 80.69 C 228.38 65.50 228.31 50.30 228.45 35.12 M 114.19 47.08 C 112.71 48.44 112.86 51.17 114.53 52.30 C 116.32 53.83 119.88 52.69 119.63 50.04 C 120.27 46.92 116.45 45.69 114.19 47.08 M 82.09 49.07 C 79.68 49.99 79.38 54.37 82.07 55.00 C 84.12 55.91 86.79 54.20 86.61 51.93 C 87.02 49.48 84.04 48.08 82.09 49.07 M 35.20 55.14 C 33.72 55.77 33.69 57.62 33.85 58.98 C 34.35 62.46 40.83 61.75 40.22 58.05 C 40.69 55.25 37.33 54.07 35.20 55.14 M 292.04 71.00 C 291.61 74.09 295.06 74.21 297.24 74.17 C 298.15 72.66 299.00 70.81 298.05 69.10 C 296.39 66.71 291.63 67.77 292.04 71.00 M 117.24 85.16 C 106.30 89.76 98.01 99.80 95.16 111.28 C 94.79 113.84 91.91 114.12 90.04 115.13 C 78.07 120.22 71.03 134.21 73.88 146.89 C 79.90 147.20 86.21 149.03 90.42 153.57 C 94.96 158.17 97.03 164.63 97.61 170.94 C 97.83 172.34 97.26 173.39 95.91 174.09 C 94.00 170.16 94.32 165.57 92.30 161.68 C 89.73 155.03 83.05 150.38 75.99 149.93 C 71.40 149.61 66.66 149.73 62.32 151.42 C 51.02 155.39 42.53 166.86 43.12 179.00 C 43.04 193.15 54.87 206.22 69.00 207.26 C 132.99 207.20 196.99 207.28 260.98 207.23 C 272.65 207.62 283.33 199.28 287.37 188.61 C 289.95 181.29 289.82 172.86 286.20 165.90 C 283.02 159.26 277.06 154.24 270.25 151.60 C 268.41 151.13 268.15 149.08 267.46 147.61 C 263.99 137.60 253.69 130.23 243.01 130.79 C 237.45 130.62 232.22 132.89 227.81 136.11 C 226.48 137.70 225.30 135.24 225.37 134.11 C 224.57 123.52 214.37 115.40 204.07 115.25 C 197.29 115.22 189.90 119.02 188.02 125.94 C 187.46 125.72 186.34 125.28 185.78 125.06 C 186.64 118.20 193.35 114.74 199.25 112.89 C 192.98 100.36 177.11 95.06 164.08 99.12 C 162.04 96.49 160.01 93.82 157.49 91.63 C 146.78 82.04 130.42 79.37 117.24 85.16 M 47.47 91.49 C 45.18 92.02 45.23 95.05 46.10 96.76 C 48.27 98.93 52.58 97.16 51.99 93.94 C 52.04 91.64 49.28 90.83 47.47 91.49 M 256.23 124.09 C 256.21 127.27 260.14 126.83 262.21 126.12 C 262.32 124.39 263.28 121.66 261.15 120.76 C 258.89 119.31 255.42 121.26 256.23 124.09 M 293.47 215.60 C 291.78 216.67 291.65 219.04 292.54 220.69 C 294.34 222.59 297.98 221.74 298.47 219.04 C 298.93 216.32 295.80 214.43 293.47 215.60 M 35.47 228.56 C 33.33 229.24 33.48 232.20 34.35 233.84 C 36.23 235.39 40.22 234.96 40.23 232.00 C 40.62 229.46 37.74 227.46 35.47 228.56 M 80.66 235.48 C 79.45 237.41 80.43 240.62 83.06 240.46 C 85.10 241.15 86.77 238.94 86.62 237.09 C 86.71 234.11 82.08 233.34 80.66 235.48 M 113.63 237.44 C 113.02 238.83 112.90 240.74 113.98 241.95 C 115.38 243.06 117.46 242.86 118.93 241.96 C 119.87 240.49 119.91 238.48 118.89 237.04 C 117.35 236.14 114.87 235.91 113.63 237.44 Z" />
<path fill="#181821" opacity="1.00" d=" M 201.40 35.43 C 206.10 32.73 211.97 38.88 209.34 43.49 C 207.64 47.72 201.04 48.08 198.89 44.07 C 196.85 41.15 198.42 37.02 201.40 35.43 M 202.16 38.16 C 198.60 40.07 202.21 46.19 205.67 43.73 C 209.23 41.60 205.68 35.98 202.16 38.16 Z" />
<path fill="#181821" opacity="1.00" d=" M 201.28 243.20 C 204.93 241.52 209.83 243.90 209.96 248.14 C 210.52 252.91 204.31 256.26 200.57 253.35 C 196.72 251.18 197.33 244.91 201.28 243.20 M 202.48 245.54 C 200.92 245.88 200.62 247.66 200.75 249.02 C 200.62 252.62 207.18 252.65 207.14 249.08 C 207.94 246.28 204.82 244.49 202.48 245.54 Z" />
<path fill="#181821" opacity="1.00" d=" M 225.00 258.94 C 227.11 255.45 232.79 255.82 234.78 259.23 C 236.75 262.00 235.67 266.16 232.74 267.80 C 230.81 268.12 228.84 267.99 226.90 268.05 C 224.06 266.02 222.60 261.88 225.00 258.94 M 228.47 259.53 C 224.63 260.80 227.20 267.11 230.89 265.57 C 235.09 264.58 232.58 257.32 228.47 259.53 Z" />
<path fill="#181821" opacity="1.00" d=" M 248.39 257.31 C 253.01 253.87 259.45 259.90 257.06 264.87 C 255.80 268.45 251.40 268.59 248.36 267.64 C 244.53 265.49 244.75 259.53 248.39 257.31 M 250.44 259.45 C 248.25 259.66 247.76 262.62 248.80 264.19 C 250.12 266.64 254.79 266.04 254.73 262.99 C 255.36 260.42 252.72 258.65 250.44 259.45 Z" />
</g>
<g id="#0298b1ff">
<path fill="#0298b1" opacity="1.00" d=" M 117.24 85.16 C 130.42 79.37 146.78 82.04 157.49 91.63 C 160.01 93.82 162.04 96.49 164.08 99.12 C 177.11 95.06 192.98 100.36 199.25 112.89 C 193.35 114.74 186.64 118.20 185.78 125.06 C 186.34 125.28 187.46 125.72 188.02 125.94 C 189.90 119.02 197.29 115.22 204.07 115.25 C 214.37 115.40 224.57 123.52 225.37 134.11 C 225.30 135.24 226.48 137.70 227.81 136.11 C 232.22 132.89 237.45 130.62 243.01 130.79 C 253.69 130.23 263.99 137.60 267.46 147.61 C 268.15 149.08 268.41 151.13 270.25 151.60 C 277.06 154.24 283.02 159.26 286.20 165.90 C 289.82 172.86 289.95 181.29 287.37 188.61 C 283.33 199.28 272.65 207.62 260.98 207.23 C 196.99 207.28 132.99 207.20 69.00 207.26 C 54.87 206.22 43.04 193.15 43.12 179.00 C 42.53 166.86 51.02 155.39 62.32 151.42 C 66.66 149.73 71.40 149.61 75.99 149.93 C 83.05 150.38 89.73 155.03 92.30 161.68 C 94.32 165.57 94.00 170.16 95.91 174.09 C 97.26 173.39 97.83 172.34 97.61 170.94 C 97.03 164.63 94.96 158.17 90.42 153.57 C 86.21 149.03 79.90 147.20 73.88 146.89 C 71.03 134.21 78.07 120.22 90.04 115.13 C 91.91 114.12 94.79 113.84 95.16 111.28 C 98.01 99.80 106.30 89.76 117.24 85.16 Z" />
</g>
</svg>
